<?xml version="1.0" standalone="no"?>
<!DOCTYPE svg PUBLIC "-//W3C//DTD SVG 20010904//EN"
 "http://www.w3.org/TR/2001/REC-SVG-20010904/DTD/svg10.dtd">
<svg version="1.0" xmlns="http://www.w3.org/2000/svg"
 width="1280.000000pt" height="1053.000000pt" viewBox="0 0 1280.000000 1053.000000"
 preserveAspectRatio="xMidYMid meet">
<metadata>
Created by potrace 1.15, written by Peter Selinger 2001-2017
</metadata>
<g transform="translate(0.000000,1053.000000) scale(0.100000,-0.100000)"
fill="#000000" stroke="none">
<path d="M8044 10519 c-3 -6 12 -37 34 -68 103 -141 182 -262 215 -326 153
-305 191 -859 88 -1265 -35 -138 -51 -177 -80 -190 -17 -8 -132 -15 -346 -21
-410 -12 -505 -26 -505 -75 0 -26 101 -124 165 -159 116 -65 315 -105 522
-105 39 0 74 -4 77 -9 15 -24 -167 -129 -270 -156 -73 -19 -227 -19 -358 -1
-97 14 -126 13 -126 -5 0 -45 151 -256 208 -291 20 -12 73 -32 117 -43 122
-31 102 -66 -50 -85 -81 -10 -111 -24 -360 -164 -113 -63 -185 -93 -263 -107
-101 -19 -168 13 -260 124 -125 151 -262 218 -547 267 -187 32 -241 29 -471
-29 -401 -102 -494 -96 -824 56 -30 14 -122 66 -205 116 -274 166 -401 210
-615 210 -122 1 -143 -2 -220 -27 -46 -16 -124 -48 -171 -73 -160 -81 -233
-70 -349 55 -142 151 -184 192 -218 208 -121 57 -251 3 -450 -190 -100 -97
-103 -101 -127 -180 -14 -45 -50 -193 -81 -331 -165 -749 -284 -1064 -474
-1256 -83 -84 -157 -120 -257 -127 -115 -7 -152 7 -238 92 -120 119 -210 147
-274 87 -80 -74 -117 -223 -181 -726 -55 -429 -95 -639 -155 -816 -64 -187
-154 -326 -259 -398 -48 -33 -125 -50 -359 -81 -165 -21 -244 -44 -283 -81
-31 -29 -32 -105 -4 -167 46 -102 194 -291 395 -504 61 -65 106 -102 175 -142
176 -105 330 -156 465 -156 164 0 280 53 416 190 85 85 160 192 378 537 165
261 282 378 436 435 49 19 80 23 170 22 95 0 121 -4 190 -28 44 -16 106 -42
139 -58 59 -30 59 -30 103 -13 50 19 73 48 83 107 12 64 -6 162 -71 392 -74
259 -88 317 -100 422 -12 108 1 200 41 280 68 139 198 197 480 215 174 10 205
18 243 57 36 37 54 93 72 225 18 127 37 176 78 195 53 26 154 -6 298 -94 67
-41 105 -43 174 -10 66 30 130 94 242 241 103 136 197 231 263 266 38 20 60
24 135 24 83 0 96 -3 168 -37 43 -21 114 -62 156 -93 173 -121 259 -95 455
139 54 64 107 118 124 125 92 38 299 -69 380 -196 67 -104 60 -160 -35 -297
-252 -361 -532 -604 -993 -862 -334 -186 -471 -292 -600 -464 -161 -214 -217
-539 -144 -828 75 -297 305 -657 642 -1003 72 -75 132 -139 132 -142 0 -19
-214 -85 -950 -292 -753 -213 -790 -219 -1155 -186 -339 30 -609 90 -1010 223
-204 68 -1075 391 -1259 468 -50 20 -181 75 -291 120 -110 45 -262 109 -338
141 -195 83 -200 82 -145 -48 35 -86 76 -132 181 -206 38 -26 67 -53 65 -59
-2 -6 -28 -20 -57 -30 -69 -23 -81 -34 -81 -72 0 -36 110 -286 172 -390 51
-88 80 -126 190 -249 49 -55 88 -105 88 -112 0 -18 -38 -41 -101 -61 -30 -9
-55 -18 -57 -20 -11 -8 41 -76 150 -195 145 -159 213 -248 291 -378 110 -182
111 -187 117 -356 4 -86 11 -159 18 -171 13 -25 90 -90 145 -123 55 -33 146
-42 344 -30 256 14 387 40 708 142 451 144 540 190 933 485 324 243 685 493
792 547 125 63 456 155 1078 300 152 36 307 72 343 81 36 10 77 14 92 10 37
-9 85 -61 200 -221 244 -338 440 -582 621 -772 75 -80 138 -119 241 -149 50
-14 87 -16 221 -11 l162 5 7 -103 c4 -57 4 -108 1 -114 -4 -6 -28 -11 -54 -11
-81 0 -134 -48 -176 -160 -20 -54 -22 -82 -11 -215 6 -78 4 -118 -8 -180 -27
-130 -37 -224 -31 -264 5 -33 11 -40 41 -49 25 -8 35 -7 38 1 3 7 19 59 36
116 30 105 77 211 106 244 24 26 68 22 92 -9 27 -34 26 -65 -4 -212 -14 -66
-25 -142 -25 -168 0 -42 4 -50 43 -86 55 -53 257 -194 327 -229 30 -15 97 -40
148 -55 89 -25 94 -25 113 -9 10 10 31 42 45 71 23 47 25 57 14 88 -13 41 -59
84 -161 154 -130 88 -147 115 -149 238 -3 153 0 191 36 363 27 132 35 191 32
244 -5 94 -21 107 -130 107 l-80 0 5 267 c5 282 12 335 59 428 81 160 289 282
606 356 185 43 222 17 225 -154 l2 -92 -54 3 c-53 4 -54 3 -105 -50 -29 -30
-65 -79 -79 -109 l-27 -54 15 -220 c11 -172 12 -248 3 -349 -10 -129 -10 -130
12 -148 27 -22 39 -22 67 -3 25 18 43 71 43 130 1 41 54 155 76 162 23 8 66
-43 107 -125 31 -64 60 -105 112 -158 76 -76 136 -111 244 -139 123 -32 504
-48 529 -23 7 7 12 43 12 94 0 124 -24 145 -185 159 -101 9 -206 32 -238 54
-53 35 -128 114 -151 160 -34 67 -46 133 -48 246 -1 88 2 108 25 162 15 34 27
71 27 81 0 26 -32 52 -64 52 -49 0 -66 16 -66 62 0 61 31 290 41 310 29 55
139 64 464 39 189 -14 245 -9 280 25 26 26 17 60 -46 186 -173 344 -236 558
-226 758 6 126 30 198 88 264 47 53 83 60 148 26 53 -27 98 -81 226 -271 168
-250 291 -363 438 -399 70 -18 125 5 176 73 110 147 162 332 181 647 6 96 17
198 25 227 19 66 78 119 172 156 37 14 154 60 258 101 203 79 483 180 531 191
16 4 48 13 72 21 23 8 60 14 82 14 44 0 67 -23 114 -118 34 -68 50 -74 85 -32
27 32 27 33 58 16 40 -20 57 -20 73 -1 7 8 21 15 31 15 25 0 49 27 49 56 0 18
5 24 23 24 31 0 44 11 48 39 3 19 13 27 39 34 70 18 74 36 29 128 -17 34 -34
79 -36 99 -5 33 -2 40 28 62 47 35 99 54 495 182 495 161 564 190 564 236 0
25 -38 113 -53 122 -7 4 -24 8 -38 8 -26 0 -365 -104 -850 -261 -312 -100
-330 -102 -475 -30 -120 60 -197 76 -314 66 -104 -8 -289 -45 -430 -85 -118
-34 -156 -37 -187 -15 -12 8 -47 67 -77 129 -65 135 -56 130 -295 176 -316 62
-854 198 -996 251 -170 64 -280 149 -373 288 -88 132 -169 338 -159 404 3 18
10 63 16 101 13 82 1 206 -27 269 -10 23 -45 69 -76 101 -58 59 -58 59 -54
110 7 68 45 144 126 251 101 132 197 189 284 167 57 -15 173 -89 216 -137 20
-24 68 -99 107 -167 43 -77 89 -143 121 -175 47 -48 57 -53 96 -53 59 0 87 17
126 74 46 69 44 121 -8 220 -45 85 -48 110 -20 163 26 49 27 93 1 93 -10 0
-35 -11 -56 -25 -45 -31 -62 -27 -109 25 -38 42 -61 108 -50 143 10 35 45 67
73 67 32 0 101 -31 120 -53 21 -26 39 -20 46 16 8 39 74 156 96 170 29 18 48
-1 88 -83 64 -130 79 -150 111 -150 49 0 72 28 72 87 -1 133 -78 308 -191 438
-72 82 -78 113 -23 129 19 5 47 23 63 38 56 56 28 149 -66 220 -59 44 -75 72
-54 92 8 8 79 37 159 66 167 60 316 130 410 192 113 74 211 186 196 224 -10
27 -109 16 -308 -35 -106 -27 -226 -54 -266 -60 -101 -16 -275 -24 -287 -14
-5 4 -34 81 -64 171 -236 714 -508 1121 -937 1402 -69 46 -407 220 -426 220
-4 0 -10 -5 -14 -11z m-209 -5290 c86 -16 136 -45 265 -155 165 -141 525 -503
604 -609 130 -175 178 -310 133 -379 -23 -35 -112 -79 -161 -79 -53 0 -66 19
-112 156 -111 337 -320 584 -541 642 -76 20 -236 19 -325 -1 -161 -37 -282 22
-282 136 0 116 121 245 264 284 68 18 82 19 155 5z"/>
</g>
</svg>
